<svg width="145" height="150" viewBox="0 0 145 150" fill="none" xmlns="http://www.w3.org/2000/svg">
<g style="mix-blend-mode:overlay">
<g opacity="0.848633" filter="url(#filter0_d)">
<path fill-rule="evenodd" clip-rule="evenodd" d="M99.1816 99H55.8179C53.1559 99 50.9998 96.8371 50.9998 94.1667V65.1667C50.9998 62.4963 53.1559 60.3333 55.8179 60.3333H99.1816C101.844 60.3333 104 62.4963 104 65.1667V94.1667C104 96.8371 101.844 99 99.1816 99Z" fill="url(#paint0_radial)"/>
<path d="M63.0452 62.75V55.5C63.0452 47.4912 69.516 41 77.4997 41V41C85.4834 41 91.9543 47.4912 91.9543 55.5V62.75" stroke="url(#paint1_radial)" stroke-width="4.8" stroke-linecap="round" stroke-linejoin="round"/>
<g opacity="0.247768">
<path fill-rule="evenodd" clip-rule="evenodd" d="M93.8165 102.324L51.1116 94.7944C48.49 94.3322 46.7422 91.8277 47.206 89.1978L52.2418 60.6384C52.7055 58.0086 55.2044 56.2529 57.826 56.7152L100.531 64.2452C103.152 64.7075 104.9 67.2119 104.437 69.8418L99.4008 98.4012C98.9371 101.031 96.4381 102.787 93.8165 102.324Z" fill="url(#paint2_radial)"/>
<path d="M64.5239 60.3501L65.7829 53.2103C67.1736 45.3231 74.6733 40.0542 82.5357 41.4406V41.4406C90.3982 42.8269 95.6435 50.3431 94.2528 58.2303L92.9938 65.3702" stroke="url(#paint3_radial)" stroke-width="4.8" stroke-linecap="round" stroke-linejoin="round"/>
</g>
<g opacity="0.200707">
<path fill-rule="evenodd" clip-rule="evenodd" d="M87.9556 104.667L47.2071 89.8355C44.7056 88.925 43.4193 86.1551 44.3326 83.6457L54.2512 56.3946C55.1645 53.8852 57.9304 52.5902 60.4319 53.5007L101.18 68.3319C103.682 69.2424 104.968 72.0123 104.055 74.5217L94.1363 101.773C93.223 104.282 90.4571 105.577 87.9556 104.667Z" fill="url(#paint4_radial)"/>
<path d="M66.3968 58.2435L68.8764 51.4307C71.6156 43.9049 79.9163 40.0183 87.4185 42.7489V42.7489C94.9208 45.4795 98.7812 53.7924 96.0421 61.3182L93.5624 68.131" stroke="url(#paint5_radial)" stroke-width="4.8" stroke-linecap="round" stroke-linejoin="round"/>
</g>
<g opacity="0.0997024">
<path fill-rule="evenodd" clip-rule="evenodd" d="M81.7769 105.956L44.2229 84.2738C41.9175 82.9428 41.1317 79.9916 42.4669 77.679L56.9669 52.5642C58.3021 50.2516 61.2508 49.4565 63.5562 50.7875L101.11 72.4693C103.416 73.8004 104.201 76.7516 102.866 79.0642L88.3662 104.179C87.031 106.492 84.0823 107.287 81.7769 105.956Z" fill="url(#paint6_radial)"/>
<path d="M68.6069 56.494L72.2319 50.2154C76.2364 43.2795 85.0858 40.8934 91.9999 44.8853V44.8853C98.914 48.8771 101.272 57.7341 97.2679 64.6699L93.6429 70.9486" stroke="url(#paint7_radial)" stroke-width="4.8" stroke-linecap="round" stroke-linejoin="round"/>
</g>
<g opacity="0.0507115">
<path fill-rule="evenodd" clip-rule="evenodd" d="M75.4683 106.152L42.2498 78.2785C40.2106 76.5674 39.9492 73.5245 41.6657 71.4789L60.3065 49.2636C62.023 47.2179 65.065 46.947 67.1043 48.6581L100.323 76.5317C102.362 78.2428 102.623 81.2857 100.907 83.3313L82.266 105.547C80.5495 107.592 77.5075 107.863 75.4683 106.152Z" fill="url(#paint8_radial)"/>
<path d="M71.0872 55.155L75.7475 49.6012C80.8954 43.466 90.0248 42.6529 96.1407 47.7847V47.7847C102.257 52.9166 103.041 62.0484 97.8931 68.1836L93.2329 73.7374" stroke="url(#paint9_radial)" stroke-width="4.8" stroke-linecap="round" stroke-linejoin="round"/>
</g>
</g>
<g opacity="0.245954">
<path fill-rule="evenodd" clip-rule="evenodd" d="M101.182 99H57.8179C55.1559 99 52.9998 96.8371 52.9998 94.1667V65.1667C52.9998 62.4963 55.1559 60.3333 57.8179 60.3333H101.182C103.844 60.3333 106 62.4963 106 65.1667V94.1667C106 96.8371 103.844 99 101.182 99Z" fill="url(#paint10_radial)"/>
<path d="M65.0452 62.75V55.5C65.0452 47.4912 71.516 41 79.4997 41V41C87.4834 41 93.9543 47.4912 93.9543 55.5V62.75" stroke="url(#paint11_radial)" stroke-width="4.8" stroke-linecap="round" stroke-linejoin="round"/>
<g opacity="0.247768">
<path fill-rule="evenodd" clip-rule="evenodd" d="M95.8165 102.324L53.1116 94.7944C50.49 94.3322 48.7422 91.8277 49.206 89.1978L54.2418 60.6384C54.7055 58.0086 57.2044 56.2529 59.826 56.7152L102.531 64.2452C105.152 64.7075 106.9 67.2119 106.437 69.8418L101.401 98.4012C100.937 101.031 98.4381 102.787 95.8165 102.324Z" fill="url(#paint12_radial)"/>
<path d="M66.5239 60.3501L67.7829 53.2103C69.1736 45.3231 76.6733 40.0542 84.5357 41.4406V41.4406C92.3982 42.8269 97.6435 50.3431 96.2528 58.2303L94.9938 65.3702" stroke="url(#paint13_radial)" stroke-width="4.8" stroke-linecap="round" stroke-linejoin="round"/>
</g>
<g opacity="0.200707">
<path fill-rule="evenodd" clip-rule="evenodd" d="M89.9556 104.667L49.2071 89.8355C46.7056 88.925 45.4193 86.1551 46.3326 83.6457L56.2512 56.3946C57.1645 53.8852 59.9304 52.5902 62.4319 53.5007L103.18 68.3319C105.682 69.2424 106.968 72.0123 106.055 74.5217L96.1363 101.773C95.223 104.282 92.4571 105.577 89.9556 104.667Z" fill="url(#paint14_radial)"/>
<path d="M68.3968 58.2435L70.8764 51.4307C73.6156 43.9049 81.9163 40.0183 89.4185 42.7489V42.7489C96.9208 45.4795 100.781 53.7924 98.0421 61.3182L95.5624 68.131" stroke="url(#paint15_radial)" stroke-width="4.8" stroke-linecap="round" stroke-linejoin="round"/>
</g>
<g opacity="0.0997024">
<path fill-rule="evenodd" clip-rule="evenodd" d="M83.7769 105.956L46.2229 84.2738C43.9175 82.9428 43.1317 79.9916 44.4669 77.679L58.9669 52.5642C60.3021 50.2516 63.2508 49.4565 65.5562 50.7875L103.11 72.4693C105.416 73.8004 106.201 76.7516 104.866 79.0642L90.3662 104.179C89.031 106.492 86.0823 107.287 83.7769 105.956Z" fill="url(#paint16_radial)"/>
<path d="M70.6069 56.494L74.2319 50.2154C78.2364 43.2795 87.0858 40.8934 93.9999 44.8853V44.8853C100.914 48.8771 103.272 57.7341 99.2679 64.6699L95.6429 70.9486" stroke="url(#paint17_radial)" stroke-width="4.8" stroke-linecap="round" stroke-linejoin="round"/>
</g>
<g opacity="0.0507115">
<path fill-rule="evenodd" clip-rule="evenodd" d="M77.4683 106.152L44.2498 78.2785C42.2106 76.5674 41.9492 73.5245 43.6657 71.4789L62.3065 49.2636C64.023 47.2179 67.065 46.947 69.1043 48.6581L102.323 76.5317C104.362 78.2428 104.623 81.2857 102.907 83.3313L84.266 105.547C82.5495 107.592 79.5075 107.863 77.4683 106.152Z" fill="url(#paint18_radial)"/>
<path d="M73.0872 55.155L77.7475 49.6012C82.8954 43.466 92.0248 42.6529 98.1407 47.7847V47.7847C104.257 52.9166 105.041 62.0484 99.8931 68.1836L95.2329 73.7374" stroke="url(#paint19_radial)" stroke-width="4.8" stroke-linecap="round" stroke-linejoin="round"/>
</g>
</g>
<g opacity="0.199289">
<path fill-rule="evenodd" clip-rule="evenodd" d="M103.182 99H59.8179C57.1559 99 54.9998 96.8371 54.9998 94.1667V65.1667C54.9998 62.4963 57.1559 60.3333 59.8179 60.3333H103.182C105.844 60.3333 108 62.4963 108 65.1667V94.1667C108 96.8371 105.844 99 103.182 99Z" fill="url(#paint20_radial)"/>
<path d="M67.0452 62.75V55.5C67.0452 47.4912 73.516 41 81.4997 41V41C89.4834 41 95.9543 47.4912 95.9543 55.5V62.75" stroke="url(#paint21_radial)" stroke-width="4.8" stroke-linecap="round" stroke-linejoin="round"/>
<g opacity="0.247768">
<path fill-rule="evenodd" clip-rule="evenodd" d="M97.8165 102.324L55.1116 94.7944C52.49 94.3322 50.7422 91.8277 51.206 89.1978L56.2418 60.6384C56.7055 58.0086 59.2044 56.2529 61.826 56.7152L104.531 64.2452C107.152 64.7075 108.9 67.2119 108.437 69.8418L103.401 98.4012C102.937 101.031 100.438 102.787 97.8165 102.324Z" fill="url(#paint22_radial)"/>
<path d="M68.5239 60.3501L69.7829 53.2103C71.1736 45.3231 78.6733 40.0542 86.5357 41.4406V41.4406C94.3982 42.8269 99.6435 50.3431 98.2528 58.2303L96.9938 65.3702" stroke="url(#paint23_radial)" stroke-width="4.8" stroke-linecap="round" stroke-linejoin="round"/>
</g>
<g opacity="0.200707">
<path fill-rule="evenodd" clip-rule="evenodd" d="M91.9556 104.667L51.2071 89.8355C48.7056 88.925 47.4193 86.1551 48.3326 83.6457L58.2512 56.3946C59.1645 53.8852 61.9304 52.5902 64.4319 53.5007L105.18 68.3319C107.682 69.2424 108.968 72.0123 108.055 74.5217L98.1363 101.773C97.223 104.282 94.4571 105.577 91.9556 104.667Z" fill="url(#paint24_radial)"/>
<path d="M70.3968 58.2435L72.8764 51.4307C75.6156 43.9049 83.9163 40.0183 91.4185 42.7489V42.7489C98.9208 45.4795 102.781 53.7924 100.042 61.3182L97.5624 68.131" stroke="url(#paint25_radial)" stroke-width="4.8" stroke-linecap="round" stroke-linejoin="round"/>
</g>
<g opacity="0.0997024">
<path fill-rule="evenodd" clip-rule="evenodd" d="M85.7769 105.956L48.2229 84.2738C45.9175 82.9428 45.1317 79.9916 46.4669 77.679L60.9669 52.5642C62.3021 50.2516 65.2508 49.4565 67.5562 50.7875L105.11 72.4693C107.416 73.8004 108.201 76.7516 106.866 79.0642L92.3662 104.179C91.031 106.492 88.0823 107.287 85.7769 105.956Z" fill="url(#paint26_radial)"/>
<path d="M72.6069 56.494L76.2319 50.2154C80.2364 43.2795 89.0858 40.8934 95.9999 44.8853V44.8853C102.914 48.8771 105.272 57.7341 101.268 64.6699L97.6429 70.9486" stroke="url(#paint27_radial)" stroke-width="4.8" stroke-linecap="round" stroke-linejoin="round"/>
</g>
<g opacity="0.0507115">
<path fill-rule="evenodd" clip-rule="evenodd" d="M79.4683 106.152L46.2498 78.2785C44.2106 76.5674 43.9492 73.5245 45.6657 71.4789L64.3065 49.2636C66.023 47.2179 69.065 46.947 71.1043 48.6581L104.323 76.5317C106.362 78.2428 106.623 81.2857 104.907 83.3313L86.266 105.547C84.5495 107.592 81.5075 107.863 79.4683 106.152Z" fill="url(#paint28_radial)"/>
<path d="M75.0872 55.155L79.7475 49.6012C84.8954 43.466 94.0248 42.6529 100.141 47.7847V47.7847C106.257 52.9166 107.041 62.0484 101.893 68.1836L97.2329 73.7374" stroke="url(#paint29_radial)" stroke-width="4.8" stroke-linecap="round" stroke-linejoin="round"/>
</g>
</g>
<g opacity="0.154762">
<path fill-rule="evenodd" clip-rule="evenodd" d="M105.182 99H61.8179C59.1559 99 56.9998 96.8371 56.9998 94.1667V65.1667C56.9998 62.4963 59.1559 60.3333 61.8179 60.3333H105.182C107.844 60.3333 110 62.4963 110 65.1667V94.1667C110 96.8371 107.844 99 105.182 99Z" fill="url(#paint30_radial)"/>
<path d="M69.0452 62.75V55.5C69.0452 47.4912 75.516 41 83.4997 41V41C91.4834 41 97.9543 47.4912 97.9543 55.5V62.75" stroke="url(#paint31_radial)" stroke-width="4.8" stroke-linecap="round" stroke-linejoin="round"/>
<g opacity="0.247768">
<path fill-rule="evenodd" clip-rule="evenodd" d="M99.8165 102.324L57.1116 94.7944C54.49 94.3322 52.7422 91.8277 53.206 89.1978L58.2418 60.6384C58.7055 58.0086 61.2044 56.2529 63.826 56.7152L106.531 64.2452C109.152 64.7075 110.9 67.2119 110.437 69.8418L105.401 98.4012C104.937 101.031 102.438 102.787 99.8165 102.324Z" fill="url(#paint32_radial)"/>
<path d="M70.5239 60.3501L71.7829 53.2103C73.1736 45.3231 80.6733 40.0542 88.5357 41.4406V41.4406C96.3982 42.8269 101.643 50.3431 100.253 58.2303L98.9938 65.3702" stroke="url(#paint33_radial)" stroke-width="4.8" stroke-linecap="round" stroke-linejoin="round"/>
</g>
<g opacity="0.200707">
<path fill-rule="evenodd" clip-rule="evenodd" d="M93.9556 104.667L53.2071 89.8355C50.7056 88.925 49.4193 86.1551 50.3326 83.6457L60.2512 56.3946C61.1645 53.8852 63.9304 52.5902 66.4319 53.5007L107.18 68.3319C109.682 69.2424 110.968 72.0123 110.055 74.5217L100.136 101.773C99.223 104.282 96.4571 105.577 93.9556 104.667Z" fill="url(#paint34_radial)"/>
<path d="M72.3968 58.2435L74.8764 51.4307C77.6156 43.9049 85.9163 40.0183 93.4185 42.7489V42.7489C100.921 45.4795 104.781 53.7924 102.042 61.3182L99.5624 68.131" stroke="url(#paint35_radial)" stroke-width="4.8" stroke-linecap="round" stroke-linejoin="round"/>
</g>
<g opacity="0.0997024">
<path fill-rule="evenodd" clip-rule="evenodd" d="M87.7769 105.956L50.2229 84.2738C47.9175 82.9428 47.1317 79.9916 48.4669 77.679L62.9669 52.5642C64.3021 50.2516 67.2508 49.4565 69.5562 50.7875L107.11 72.4693C109.416 73.8004 110.201 76.7516 108.866 79.0642L94.3662 104.179C93.031 106.492 90.0823 107.287 87.7769 105.956Z" fill="url(#paint36_radial)"/>
<path d="M74.6069 56.494L78.2319 50.2154C82.2364 43.2795 91.0858 40.8934 97.9999 44.8853V44.8853C104.914 48.8771 107.272 57.7341 103.268 64.6699L99.6429 70.9486" stroke="url(#paint37_radial)" stroke-width="4.8" stroke-linecap="round" stroke-linejoin="round"/>
</g>
<g opacity="0.0507115">
<path fill-rule="evenodd" clip-rule="evenodd" d="M81.4683 106.152L48.2498 78.2785C46.2106 76.5674 45.9492 73.5245 47.6657 71.4789L66.3065 49.2636C68.023 47.2179 71.065 46.947 73.1043 48.6581L106.323 76.5317C108.362 78.2428 108.623 81.2857 106.907 83.3313L88.266 105.547C86.5495 107.592 83.5075 107.863 81.4683 106.152Z" fill="url(#paint38_radial)"/>
<path d="M77.0872 55.155L81.7475 49.6012C86.8954 43.466 96.0248 42.6529 102.141 47.7847V47.7847C108.257 52.9166 109.041 62.0484 103.893 68.1836L99.2329 73.7374" stroke="url(#paint39_radial)" stroke-width="4.8" stroke-linecap="round" stroke-linejoin="round"/>
</g>
</g>
<g opacity="0.101749">
<path fill-rule="evenodd" clip-rule="evenodd" d="M107.182 99H63.8179C61.1559 99 58.9998 96.8371 58.9998 94.1667V65.1667C58.9998 62.4963 61.1559 60.3333 63.8179 60.3333H107.182C109.844 60.3333 112 62.4963 112 65.1667V94.1667C112 96.8371 109.844 99 107.182 99Z" fill="url(#paint40_radial)"/>
<path d="M71.0452 62.75V55.5C71.0452 47.4912 77.516 41 85.4997 41V41C93.4834 41 99.9543 47.4912 99.9543 55.5V62.75" stroke="url(#paint41_radial)" stroke-width="4.8" stroke-linecap="round" stroke-linejoin="round"/>
<g opacity="0.247768">
<path fill-rule="evenodd" clip-rule="evenodd" d="M101.816 102.324L59.1116 94.7944C56.49 94.3322 54.7422 91.8277 55.206 89.1978L60.2418 60.6384C60.7055 58.0086 63.2044 56.2529 65.826 56.7152L108.531 64.2452C111.152 64.7075 112.9 67.2119 112.437 69.8418L107.401 98.4012C106.937 101.031 104.438 102.787 101.816 102.324Z" fill="url(#paint42_radial)"/>
<path d="M72.5239 60.3501L73.7829 53.2103C75.1736 45.3231 82.6733 40.0542 90.5357 41.4406V41.4406C98.3982 42.8269 103.643 50.3431 102.253 58.2303L100.994 65.3702" stroke="url(#paint43_radial)" stroke-width="4.8" stroke-linecap="round" stroke-linejoin="round"/>
</g>
<g opacity="0.200707">
<path fill-rule="evenodd" clip-rule="evenodd" d="M95.9556 104.667L55.2071 89.8355C52.7056 88.925 51.4193 86.1551 52.3326 83.6457L62.2512 56.3946C63.1645 53.8852 65.9304 52.5902 68.4319 53.5007L109.18 68.3319C111.682 69.2424 112.968 72.0123 112.055 74.5217L102.136 101.773C101.223 104.282 98.4571 105.577 95.9556 104.667Z" fill="url(#paint44_radial)"/>
<path d="M74.3968 58.2435L76.8764 51.4307C79.6156 43.9049 87.9163 40.0183 95.4185 42.7489V42.7489C102.921 45.4795 106.781 53.7924 104.042 61.3182L101.562 68.131" stroke="url(#paint45_radial)" stroke-width="4.8" stroke-linecap="round" stroke-linejoin="round"/>
</g>
<g opacity="0.0997024">
<path fill-rule="evenodd" clip-rule="evenodd" d="M89.7769 105.956L52.2229 84.2738C49.9175 82.9428 49.1317 79.9916 50.4669 77.679L64.9669 52.5642C66.3021 50.2516 69.2508 49.4565 71.5562 50.7875L109.11 72.4693C111.416 73.8004 112.201 76.7516 110.866 79.0642L96.3662 104.179C95.031 106.492 92.0823 107.287 89.7769 105.956Z" fill="url(#paint46_radial)"/>
<path d="M76.6069 56.494L80.2319 50.2154C84.2364 43.2795 93.0858 40.8934 99.9999 44.8853V44.8853C106.914 48.8771 109.272 57.7341 105.268 64.6699L101.643 70.9486" stroke="url(#paint47_radial)" stroke-width="4.8" stroke-linecap="round" stroke-linejoin="round"/>
</g>
<g opacity="0.0507115">
<path fill-rule="evenodd" clip-rule="evenodd" d="M83.4683 106.152L50.2498 78.2785C48.2106 76.5674 47.9492 73.5245 49.6657 71.4789L68.3065 49.2636C70.023 47.2179 73.065 46.947 75.1043 48.6581L108.323 76.5317C110.362 78.2428 110.623 81.2857 108.907 83.3313L90.266 105.547C88.5495 107.592 85.5075 107.863 83.4683 106.152Z" fill="url(#paint48_radial)"/>
<path d="M79.0872 55.155L83.7475 49.6012C88.8954 43.466 98.0248 42.6529 104.141 47.7847V47.7847C110.257 52.9166 111.041 62.0484 105.893 68.1836L101.233 73.7374" stroke="url(#paint49_radial)" stroke-width="4.8" stroke-linecap="round" stroke-linejoin="round"/>
</g>
</g>
<g opacity="0.0547805">
<path fill-rule="evenodd" clip-rule="evenodd" d="M109.182 99H65.8179C63.1559 99 60.9998 96.8371 60.9998 94.1667V65.1667C60.9998 62.4963 63.1559 60.3333 65.8179 60.3333H109.182C111.844 60.3333 114 62.4963 114 65.1667V94.1667C114 96.8371 111.844 99 109.182 99Z" fill="url(#paint50_radial)"/>
<path d="M73.0452 62.75V55.5C73.0452 47.4912 79.516 41 87.4997 41V41C95.4834 41 101.954 47.4912 101.954 55.5V62.75" stroke="url(#paint51_radial)" stroke-width="4.8" stroke-linecap="round" stroke-linejoin="round"/>
<g opacity="0.247768">
<path fill-rule="evenodd" clip-rule="evenodd" d="M103.816 102.324L61.1116 94.7944C58.49 94.3322 56.7422 91.8277 57.206 89.1978L62.2418 60.6384C62.7055 58.0086 65.2044 56.2529 67.826 56.7152L110.531 64.2452C113.152 64.7075 114.9 67.2119 114.437 69.8418L109.401 98.4012C108.937 101.031 106.438 102.787 103.816 102.324Z" fill="url(#paint52_radial)"/>
<path d="M74.5239 60.3501L75.7829 53.2103C77.1736 45.3231 84.6733 40.0542 92.5357 41.4406V41.4406C100.398 42.8269 105.643 50.3431 104.253 58.2303L102.994 65.3702" stroke="url(#paint53_radial)" stroke-width="4.8" stroke-linecap="round" stroke-linejoin="round"/>
</g>
<g opacity="0.200707">
<path fill-rule="evenodd" clip-rule="evenodd" d="M97.9556 104.667L57.2071 89.8355C54.7056 88.925 53.4193 86.1551 54.3326 83.6457L64.2512 56.3946C65.1645 53.8852 67.9304 52.5902 70.4319 53.5007L111.18 68.3319C113.682 69.2424 114.968 72.0123 114.055 74.5217L104.136 101.773C103.223 104.282 100.457 105.577 97.9556 104.667Z" fill="url(#paint54_radial)"/>
<path d="M76.3968 58.2435L78.8764 51.4307C81.6156 43.9049 89.9163 40.0183 97.4185 42.7489V42.7489C104.921 45.4795 108.781 53.7924 106.042 61.3182L103.562 68.131" stroke="url(#paint55_radial)" stroke-width="4.8" stroke-linecap="round" stroke-linejoin="round"/>
</g>
<g opacity="0.0997024">
<path fill-rule="evenodd" clip-rule="evenodd" d="M91.7769 105.956L54.2229 84.2738C51.9175 82.9428 51.1317 79.9916 52.4669 77.679L66.9669 52.5642C68.3021 50.2516 71.2508 49.4565 73.5562 50.7875L111.11 72.4693C113.416 73.8004 114.201 76.7516 112.866 79.0642L98.3662 104.179C97.031 106.492 94.0823 107.287 91.7769 105.956Z" fill="url(#paint56_radial)"/>
<path d="M78.6069 56.494L82.2319 50.2154C86.2364 43.2795 95.0858 40.8934 102 44.8853V44.8853C108.914 48.8771 111.272 57.7341 107.268 64.6699L103.643 70.9486" stroke="url(#paint57_radial)" stroke-width="4.8" stroke-linecap="round" stroke-linejoin="round"/>
</g>
<g opacity="0.0507115">
<path fill-rule="evenodd" clip-rule="evenodd" d="M85.4683 106.152L52.2498 78.2785C50.2106 76.5674 49.9492 73.5245 51.6657 71.4789L70.3065 49.2636C72.023 47.2179 75.065 46.947 77.1043 48.6581L110.323 76.5317C112.362 78.2428 112.623 81.2857 110.907 83.3313L92.266 105.547C90.5495 107.592 87.5075 107.863 85.4683 106.152Z" fill="url(#paint58_radial)"/>
<path d="M81.0872 55.155L85.7475 49.6012C90.8954 43.466 100.025 42.6529 106.141 47.7847V47.7847C112.257 52.9166 113.041 62.0484 107.893 68.1836L103.233 73.7374" stroke="url(#paint59_radial)" stroke-width="4.8" stroke-linecap="round" stroke-linejoin="round"/>
</g>
</g>
</g>
<path fill-rule="evenodd" clip-rule="evenodd" d="M103.077 90.1673L65.4328 100.254C63.1218 100.873 60.7462 99.4945 60.1242 97.173L53.369 71.9624C52.747 69.6409 54.1149 67.2591 56.4259 66.6398L94.0703 56.553C96.3813 55.9338 98.7568 57.3126 99.3789 59.6341L106.134 84.8447C106.756 87.1662 105.388 89.548 103.077 90.1673Z" fill="url(#paint60_radial)"/>
<path d="M63.2629 67.0596L61.5741 60.7569C59.7086 53.7946 63.8139 46.6464 70.7447 44.7893V44.7893C77.6754 42.9322 84.8049 47.0701 86.6704 54.0324L88.3592 60.3351" stroke="url(#paint61_radial)" stroke-width="4.32" stroke-linecap="round" stroke-linejoin="round"/>
<g opacity="0.247768">
<path fill-rule="evenodd" clip-rule="evenodd" d="M99.1868 94.3023L60.3627 97.699C57.9793 97.9075 55.8792 96.1372 55.6698 93.743L53.395 67.7423C53.1855 65.3481 54.9463 63.24 57.3297 63.0314L96.1537 59.6348C98.5371 59.4263 100.637 61.1966 100.847 63.5908L103.121 89.5915C103.331 91.9857 101.57 94.0938 99.1868 94.3023Z" fill="url(#paint62_radial)"/>
<path d="M63.9898 64.632L63.4211 58.1319C62.7929 50.9514 68.0771 44.6247 75.2251 43.9993V43.9993C82.373 43.374 88.6756 48.6869 89.3038 55.8674L89.8725 62.3676" stroke="url(#paint63_radial)" stroke-width="4.32" stroke-linecap="round" stroke-linejoin="round"/>
</g>
<g opacity="0.200707">
<path fill-rule="evenodd" clip-rule="evenodd" d="M94.6371 97.699L55.813 94.3023C53.4296 94.0938 51.6689 91.9857 51.8783 89.5915L54.1531 63.5908C54.3626 61.1966 56.4626 59.4263 58.846 59.6348L97.6701 63.0314C100.053 63.24 101.814 65.3481 101.605 67.7423L99.33 93.743C99.1205 96.1372 97.0204 97.9075 94.6371 97.699Z" fill="url(#paint64_radial)"/>
<path d="M65.1272 62.3676L65.6959 55.8674C66.3241 48.6869 72.6267 43.374 79.7746 43.9993V43.9993C86.9226 44.6247 92.2068 50.9514 91.5786 58.1319L91.0099 64.6321" stroke="url(#paint65_radial)" stroke-width="4.32" stroke-linecap="round" stroke-linejoin="round"/>
</g>
<g opacity="0.0997024">
<path fill-rule="evenodd" clip-rule="evenodd" d="M89.5668 100.254L51.9224 90.1673C49.6114 89.548 48.2435 87.1662 48.8655 84.8447L55.6207 59.6341C56.2428 57.3126 58.6183 55.9338 60.9293 56.553L98.5737 66.6398C100.885 67.2591 102.253 69.6409 101.631 71.9624L94.8754 97.173C94.2534 99.4945 91.8778 100.873 89.5668 100.254Z" fill="url(#paint66_radial)"/>
<path d="M66.6404 60.3351L68.3292 54.0324C70.1948 47.0701 77.3242 42.9322 84.2549 44.7893V44.7893C91.1857 46.6464 95.291 53.7946 93.4255 60.7569L91.7367 67.0596" stroke="url(#paint67_radial)" stroke-width="4.32" stroke-linecap="round" stroke-linejoin="round"/>
</g>
<g opacity="0.0507115">
<path fill-rule="evenodd" clip-rule="evenodd" d="M84.13 101.89L48.809 85.4194C46.6407 84.4083 45.7071 81.8251 46.7228 79.6469L57.7532 55.9923C58.7689 53.8141 61.3478 52.8688 63.5161 53.8799L98.8371 70.3503C101.005 71.3614 101.939 73.9446 100.923 76.1228L89.8929 99.7775C88.8772 101.956 86.2983 102.901 84.13 101.89Z" fill="url(#paint68_radial)"/>
<path d="M68.4836 58.5962L71.2412 52.6825C74.2874 46.1499 82.027 43.313 88.53 46.3454V46.3454C95.033 49.3777 97.8347 57.1302 94.7885 63.6628L92.0309 69.5765" stroke="url(#paint69_radial)" stroke-width="4.32" stroke-linecap="round" stroke-linejoin="round"/>
</g>
<g style="mix-blend-mode:overlay" opacity="0.152716">
<path fill-rule="evenodd" clip-rule="evenodd" d="M108.102 94.0749L63.035 106.151C60.2684 106.892 57.4257 105.246 56.6828 102.474L48.6141 72.3608C47.8711 69.5879 49.5101 66.7416 52.2768 66.0003L97.344 53.9245C100.111 53.1832 102.953 54.8287 103.696 57.6016L111.765 87.7143C112.508 90.4872 110.869 93.3335 108.102 94.0749Z" fill="url(#paint70_radial)"/>
<path d="M60.4604 66.4971L58.4433 58.9689C56.215 50.6527 61.134 42.1105 69.4314 39.8873V39.8873C77.7287 37.664 86.2598 42.6022 88.4881 50.9184L90.5053 58.4466" stroke="url(#paint71_radial)" stroke-width="5.184" stroke-linecap="round" stroke-linejoin="round"/>
<g opacity="0.247768">
<path fill-rule="evenodd" clip-rule="evenodd" d="M103.457 99.0231L56.9771 103.09C54.1238 103.339 51.6101 101.225 51.3599 98.3653L48.6428 67.309C48.3926 64.4492 50.501 61.9307 53.3543 61.6811L99.8339 57.6147C102.687 57.365 105.201 59.4791 105.451 62.3389L108.168 93.3953C108.418 96.255 106.31 98.7735 103.457 99.0231Z" fill="url(#paint72_radial)"/>
<path d="M61.3274 63.5914L60.6481 55.8273C59.8977 47.2506 66.2253 39.6923 74.7827 38.9436V38.9436C83.3401 38.195 90.8841 44.5396 91.6344 53.1163L92.3137 60.8804" stroke="url(#paint73_radial)" stroke-width="5.184" stroke-linecap="round" stroke-linejoin="round"/>
</g>
<g opacity="0.200707">
<path fill-rule="evenodd" clip-rule="evenodd" d="M98.0226 103.09L51.5431 99.0232C48.6898 98.7735 46.5813 96.255 46.8315 93.3953L49.5486 62.3389C49.7988 59.4791 52.3125 57.365 55.1659 57.6147L101.645 61.6811C104.499 61.9307 106.607 64.4492 106.357 67.309L103.64 98.3653C103.39 101.225 100.876 103.339 98.0226 103.09Z" fill="url(#paint74_radial)"/>
<path d="M62.6858 60.8804L63.3651 53.1163C64.1155 44.5396 71.6594 38.195 80.2168 38.9436V38.9436C88.7742 39.6923 95.1018 47.2506 94.3514 55.8273L93.6722 63.5914" stroke="url(#paint75_radial)" stroke-width="5.184" stroke-linecap="round" stroke-linejoin="round"/>
</g>
<g opacity="0.0997024">
<path fill-rule="evenodd" clip-rule="evenodd" d="M91.9647 106.151L46.8974 94.0749C44.1308 93.3335 42.4917 90.4872 43.2347 87.7143L51.3034 57.6016C52.0464 54.8287 54.889 53.1832 57.6557 53.9246L102.723 66.0003C105.49 66.7416 107.129 69.5879 106.386 72.3608L98.317 102.474C97.574 105.246 94.7313 106.892 91.9647 106.151Z" fill="url(#paint76_radial)"/>
<path d="M64.4946 58.4466L66.5118 50.9184C68.7401 42.6022 77.2712 37.664 85.5686 39.8873V39.8873C93.866 42.1105 98.785 50.6527 96.5567 58.9689L94.5395 66.4971" stroke="url(#paint77_radial)" stroke-width="5.184" stroke-linecap="round" stroke-linejoin="round"/>
</g>
<g opacity="0.0507115">
<path fill-rule="evenodd" clip-rule="evenodd" d="M85.4675 108.113L43.1819 88.3951C40.586 87.1846 39.4661 84.0969 40.6793 81.4951L53.8544 53.241C55.0676 50.6393 58.1528 49.5124 60.7487 50.7229L103.034 70.441C105.63 71.6515 106.75 74.7392 105.537 77.3409L92.3618 105.595C91.1486 108.197 88.0634 109.324 85.4675 108.113Z" fill="url(#paint78_radial)"/>
<path d="M66.6985 56.3638L69.9923 49.3002C73.6308 41.4974 82.8898 38.1155 90.6751 41.7459V41.7459C98.4603 45.3762 101.821 54.6428 98.1827 62.4456L94.8889 69.5092" stroke="url(#paint79_radial)" stroke-width="5.184" stroke-linecap="round" stroke-linejoin="round"/>
</g>
</g>
<defs>
<filter id="filter0_d" x="0.531494" y="0.600006" width="143.98" height="148.677" filterUnits="userSpaceOnUse" color-interpolation-filters="sRGB">
<feFlood flood-opacity="0" result="BackgroundImageFix"/>
<feColorMatrix in="SourceAlpha" type="matrix" values="0 0 0 0 0 0 0 0 0 0 0 0 0 0 0 0 0 0 127 0"/>
<feOffset dy="2"/>
<feGaussianBlur stdDeviation="20"/>
<feColorMatrix type="matrix" values="0 0 0 0 1 0 0 0 0 1 0 0 0 0 1 0 0 0 0.2 0"/>
<feBlend mode="normal" in2="BackgroundImageFix" result="effect1_dropShadow"/>
<feBlend mode="normal" in="SourceGraphic" in2="effect1_dropShadow" result="shape"/>
</filter>
<radialGradient id="paint0_radial" cx="0" cy="0" r="1" gradientUnits="userSpaceOnUse" gradientTransform="translate(50.9998 48.8506) rotate(43.417) scale(72.9655 39.9194)">
<stop stop-color="white"/>
<stop offset="1" stop-color="#00FFC2"/>
</radialGradient>
<radialGradient id="paint1_radial" cx="0" cy="0" r="1" gradientUnits="userSpaceOnUse" gradientTransform="translate(63.0452 62.75) scale(28.9091 58.9522)">
<stop stop-color="#BAFFEF"/>
<stop offset="1" stop-color="#32FFCE"/>
</radialGradient>
<radialGradient id="paint2_radial" cx="0" cy="0" r="1" gradientUnits="userSpaceOnUse" gradientTransform="translate(55.075 44.5702) rotate(53.417) scale(72.9655 39.9194)">
<stop stop-color="white"/>
<stop offset="1" stop-color="#00FFC2"/>
</radialGradient>
<radialGradient id="paint3_radial" cx="0" cy="0" r="1" gradientUnits="userSpaceOnUse" gradientTransform="translate(64.5239 60.3501) rotate(10) scale(28.9091 58.9522)">
<stop stop-color="#BAFFEF"/>
<stop offset="1" stop-color="#32FFCE"/>
</radialGradient>
<radialGradient id="paint4_radial" cx="0" cy="0" r="1" gradientUnits="userSpaceOnUse" gradientTransform="translate(59.8316 41.0625) rotate(63.417) scale(72.9655 39.9194)">
<stop stop-color="white"/>
<stop offset="1" stop-color="#00FFC2"/>
</radialGradient>
<radialGradient id="paint5_radial" cx="0" cy="0" r="1" gradientUnits="userSpaceOnUse" gradientTransform="translate(66.3968 58.2435) rotate(20) scale(28.9091 58.9522)">
<stop stop-color="#BAFFEF"/>
<stop offset="1" stop-color="#32FFCE"/>
</radialGradient>
<radialGradient id="paint6_radial" cx="0" cy="0" r="1" gradientUnits="userSpaceOnUse" gradientTransform="translate(65.1249 38.4341) rotate(73.417) scale(72.9655 39.9194)">
<stop stop-color="white"/>
<stop offset="1" stop-color="#00FFC2"/>
</radialGradient>
<radialGradient id="paint7_radial" cx="0" cy="0" r="1" gradientUnits="userSpaceOnUse" gradientTransform="translate(68.6069 56.494) rotate(30) scale(28.9091 58.9522)">
<stop stop-color="#BAFFEF"/>
<stop offset="1" stop-color="#32FFCE"/>
</radialGradient>
<radialGradient id="paint8_radial" cx="0" cy="0" r="1" gradientUnits="userSpaceOnUse" gradientTransform="translate(70.7943 36.7647) rotate(83.417) scale(72.9655 39.9194)">
<stop stop-color="white"/>
<stop offset="1" stop-color="#00FFC2"/>
</radialGradient>
<radialGradient id="paint9_radial" cx="0" cy="0" r="1" gradientUnits="userSpaceOnUse" gradientTransform="translate(71.0872 55.155) rotate(40) scale(28.9091 58.9522)">
<stop stop-color="#BAFFEF"/>
<stop offset="1" stop-color="#32FFCE"/>
</radialGradient>
<radialGradient id="paint10_radial" cx="0" cy="0" r="1" gradientUnits="userSpaceOnUse" gradientTransform="translate(52.9998 48.8506) rotate(43.417) scale(72.9655 39.9194)">
<stop stop-color="white"/>
<stop offset="1" stop-color="#00FFC2"/>
</radialGradient>
<radialGradient id="paint11_radial" cx="0" cy="0" r="1" gradientUnits="userSpaceOnUse" gradientTransform="translate(65.0452 62.75) scale(28.9091 58.9522)">
<stop stop-color="#BAFFEF"/>
<stop offset="1" stop-color="#32FFCE"/>
</radialGradient>
<radialGradient id="paint12_radial" cx="0" cy="0" r="1" gradientUnits="userSpaceOnUse" gradientTransform="translate(57.075 44.5702) rotate(53.417) scale(72.9655 39.9194)">
<stop stop-color="white"/>
<stop offset="1" stop-color="#00FFC2"/>
</radialGradient>
<radialGradient id="paint13_radial" cx="0" cy="0" r="1" gradientUnits="userSpaceOnUse" gradientTransform="translate(66.5239 60.3501) rotate(10) scale(28.9091 58.9522)">
<stop stop-color="#BAFFEF"/>
<stop offset="1" stop-color="#32FFCE"/>
</radialGradient>
<radialGradient id="paint14_radial" cx="0" cy="0" r="1" gradientUnits="userSpaceOnUse" gradientTransform="translate(61.8316 41.0625) rotate(63.417) scale(72.9655 39.9194)">
<stop stop-color="white"/>
<stop offset="1" stop-color="#00FFC2"/>
</radialGradient>
<radialGradient id="paint15_radial" cx="0" cy="0" r="1" gradientUnits="userSpaceOnUse" gradientTransform="translate(68.3968 58.2435) rotate(20) scale(28.9091 58.9522)">
<stop stop-color="#BAFFEF"/>
<stop offset="1" stop-color="#32FFCE"/>
</radialGradient>
<radialGradient id="paint16_radial" cx="0" cy="0" r="1" gradientUnits="userSpaceOnUse" gradientTransform="translate(67.1249 38.4341) rotate(73.417) scale(72.9655 39.9194)">
<stop stop-color="white"/>
<stop offset="1" stop-color="#00FFC2"/>
</radialGradient>
<radialGradient id="paint17_radial" cx="0" cy="0" r="1" gradientUnits="userSpaceOnUse" gradientTransform="translate(70.6069 56.494) rotate(30) scale(28.9091 58.9522)">
<stop stop-color="#BAFFEF"/>
<stop offset="1" stop-color="#32FFCE"/>
</radialGradient>
<radialGradient id="paint18_radial" cx="0" cy="0" r="1" gradientUnits="userSpaceOnUse" gradientTransform="translate(72.7943 36.7647) rotate(83.417) scale(72.9655 39.9194)">
<stop stop-color="white"/>
<stop offset="1" stop-color="#00FFC2"/>
</radialGradient>
<radialGradient id="paint19_radial" cx="0" cy="0" r="1" gradientUnits="userSpaceOnUse" gradientTransform="translate(73.0872 55.155) rotate(40) scale(28.9091 58.9522)">
<stop stop-color="#BAFFEF"/>
<stop offset="1" stop-color="#32FFCE"/>
</radialGradient>
<radialGradient id="paint20_radial" cx="0" cy="0" r="1" gradientUnits="userSpaceOnUse" gradientTransform="translate(54.9998 48.8506) rotate(43.417) scale(72.9655 39.9194)">
<stop stop-color="white"/>
<stop offset="1" stop-color="#00FFC2"/>
</radialGradient>
<radialGradient id="paint21_radial" cx="0" cy="0" r="1" gradientUnits="userSpaceOnUse" gradientTransform="translate(67.0452 62.75) scale(28.9091 58.9522)">
<stop stop-color="#BAFFEF"/>
<stop offset="1" stop-color="#32FFCE"/>
</radialGradient>
<radialGradient id="paint22_radial" cx="0" cy="0" r="1" gradientUnits="userSpaceOnUse" gradientTransform="translate(59.075 44.5702) rotate(53.417) scale(72.9655 39.9194)">
<stop stop-color="white"/>
<stop offset="1" stop-color="#00FFC2"/>
</radialGradient>
<radialGradient id="paint23_radial" cx="0" cy="0" r="1" gradientUnits="userSpaceOnUse" gradientTransform="translate(68.5239 60.3501) rotate(10) scale(28.9091 58.9522)">
<stop stop-color="#BAFFEF"/>
<stop offset="1" stop-color="#32FFCE"/>
</radialGradient>
<radialGradient id="paint24_radial" cx="0" cy="0" r="1" gradientUnits="userSpaceOnUse" gradientTransform="translate(63.8316 41.0625) rotate(63.417) scale(72.9655 39.9194)">
<stop stop-color="white"/>
<stop offset="1" stop-color="#00FFC2"/>
</radialGradient>
<radialGradient id="paint25_radial" cx="0" cy="0" r="1" gradientUnits="userSpaceOnUse" gradientTransform="translate(70.3968 58.2435) rotate(20) scale(28.9091 58.9522)">
<stop stop-color="#BAFFEF"/>
<stop offset="1" stop-color="#32FFCE"/>
</radialGradient>
<radialGradient id="paint26_radial" cx="0" cy="0" r="1" gradientUnits="userSpaceOnUse" gradientTransform="translate(69.1249 38.4341) rotate(73.417) scale(72.9655 39.9194)">
<stop stop-color="white"/>
<stop offset="1" stop-color="#00FFC2"/>
</radialGradient>
<radialGradient id="paint27_radial" cx="0" cy="0" r="1" gradientUnits="userSpaceOnUse" gradientTransform="translate(72.6069 56.494) rotate(30) scale(28.9091 58.9522)">
<stop stop-color="#BAFFEF"/>
<stop offset="1" stop-color="#32FFCE"/>
</radialGradient>
<radialGradient id="paint28_radial" cx="0" cy="0" r="1" gradientUnits="userSpaceOnUse" gradientTransform="translate(74.7943 36.7647) rotate(83.417) scale(72.9655 39.9194)">
<stop stop-color="white"/>
<stop offset="1" stop-color="#00FFC2"/>
</radialGradient>
<radialGradient id="paint29_radial" cx="0" cy="0" r="1" gradientUnits="userSpaceOnUse" gradientTransform="translate(75.0872 55.155) rotate(40) scale(28.9091 58.9522)">
<stop stop-color="#BAFFEF"/>
<stop offset="1" stop-color="#32FFCE"/>
</radialGradient>
<radialGradient id="paint30_radial" cx="0" cy="0" r="1" gradientUnits="userSpaceOnUse" gradientTransform="translate(56.9998 48.8506) rotate(43.417) scale(72.9655 39.9194)">
<stop stop-color="white"/>
<stop offset="1" stop-color="#00FFC2"/>
</radialGradient>
<radialGradient id="paint31_radial" cx="0" cy="0" r="1" gradientUnits="userSpaceOnUse" gradientTransform="translate(69.0452 62.75) scale(28.9091 58.9522)">
<stop stop-color="#BAFFEF"/>
<stop offset="1" stop-color="#32FFCE"/>
</radialGradient>
<radialGradient id="paint32_radial" cx="0" cy="0" r="1" gradientUnits="userSpaceOnUse" gradientTransform="translate(61.075 44.5702) rotate(53.417) scale(72.9655 39.9194)">
<stop stop-color="white"/>
<stop offset="1" stop-color="#00FFC2"/>
</radialGradient>
<radialGradient id="paint33_radial" cx="0" cy="0" r="1" gradientUnits="userSpaceOnUse" gradientTransform="translate(70.5239 60.3501) rotate(10) scale(28.9091 58.9522)">
<stop stop-color="#BAFFEF"/>
<stop offset="1" stop-color="#32FFCE"/>
</radialGradient>
<radialGradient id="paint34_radial" cx="0" cy="0" r="1" gradientUnits="userSpaceOnUse" gradientTransform="translate(65.8316 41.0625) rotate(63.417) scale(72.9655 39.9194)">
<stop stop-color="white"/>
<stop offset="1" stop-color="#00FFC2"/>
</radialGradient>
<radialGradient id="paint35_radial" cx="0" cy="0" r="1" gradientUnits="userSpaceOnUse" gradientTransform="translate(72.3968 58.2435) rotate(20) scale(28.9091 58.9522)">
<stop stop-color="#BAFFEF"/>
<stop offset="1" stop-color="#32FFCE"/>
</radialGradient>
<radialGradient id="paint36_radial" cx="0" cy="0" r="1" gradientUnits="userSpaceOnUse" gradientTransform="translate(71.1249 38.4341) rotate(73.417) scale(72.9655 39.9194)">
<stop stop-color="white"/>
<stop offset="1" stop-color="#00FFC2"/>
</radialGradient>
<radialGradient id="paint37_radial" cx="0" cy="0" r="1" gradientUnits="userSpaceOnUse" gradientTransform="translate(74.6069 56.494) rotate(30) scale(28.9091 58.9522)">
<stop stop-color="#BAFFEF"/>
<stop offset="1" stop-color="#32FFCE"/>
</radialGradient>
<radialGradient id="paint38_radial" cx="0" cy="0" r="1" gradientUnits="userSpaceOnUse" gradientTransform="translate(76.7943 36.7647) rotate(83.417) scale(72.9655 39.9194)">
<stop stop-color="white"/>
<stop offset="1" stop-color="#00FFC2"/>
</radialGradient>
<radialGradient id="paint39_radial" cx="0" cy="0" r="1" gradientUnits="userSpaceOnUse" gradientTransform="translate(77.0872 55.155) rotate(40) scale(28.9091 58.9522)">
<stop stop-color="#BAFFEF"/>
<stop offset="1" stop-color="#32FFCE"/>
</radialGradient>
<radialGradient id="paint40_radial" cx="0" cy="0" r="1" gradientUnits="userSpaceOnUse" gradientTransform="translate(58.9998 48.8506) rotate(43.417) scale(72.9655 39.9194)">
<stop stop-color="white"/>
<stop offset="1" stop-color="#00FFC2"/>
</radialGradient>
<radialGradient id="paint41_radial" cx="0" cy="0" r="1" gradientUnits="userSpaceOnUse" gradientTransform="translate(71.0452 62.75) scale(28.9091 58.9522)">
<stop stop-color="#BAFFEF"/>
<stop offset="1" stop-color="#32FFCE"/>
</radialGradient>
<radialGradient id="paint42_radial" cx="0" cy="0" r="1" gradientUnits="userSpaceOnUse" gradientTransform="translate(63.075 44.5702) rotate(53.417) scale(72.9655 39.9194)">
<stop stop-color="white"/>
<stop offset="1" stop-color="#00FFC2"/>
</radialGradient>
<radialGradient id="paint43_radial" cx="0" cy="0" r="1" gradientUnits="userSpaceOnUse" gradientTransform="translate(72.5239 60.3501) rotate(10) scale(28.9091 58.9522)">
<stop stop-color="#BAFFEF"/>
<stop offset="1" stop-color="#32FFCE"/>
</radialGradient>
<radialGradient id="paint44_radial" cx="0" cy="0" r="1" gradientUnits="userSpaceOnUse" gradientTransform="translate(67.8316 41.0625) rotate(63.417) scale(72.9655 39.9194)">
<stop stop-color="white"/>
<stop offset="1" stop-color="#00FFC2"/>
</radialGradient>
<radialGradient id="paint45_radial" cx="0" cy="0" r="1" gradientUnits="userSpaceOnUse" gradientTransform="translate(74.3968 58.2435) rotate(20) scale(28.9091 58.9522)">
<stop stop-color="#BAFFEF"/>
<stop offset="1" stop-color="#32FFCE"/>
</radialGradient>
<radialGradient id="paint46_radial" cx="0" cy="0" r="1" gradientUnits="userSpaceOnUse" gradientTransform="translate(73.1249 38.4341) rotate(73.417) scale(72.9655 39.9194)">
<stop stop-color="white"/>
<stop offset="1" stop-color="#00FFC2"/>
</radialGradient>
<radialGradient id="paint47_radial" cx="0" cy="0" r="1" gradientUnits="userSpaceOnUse" gradientTransform="translate(76.6069 56.494) rotate(30) scale(28.9091 58.9522)">
<stop stop-color="#BAFFEF"/>
<stop offset="1" stop-color="#32FFCE"/>
</radialGradient>
<radialGradient id="paint48_radial" cx="0" cy="0" r="1" gradientUnits="userSpaceOnUse" gradientTransform="translate(78.7943 36.7647) rotate(83.417) scale(72.9655 39.9194)">
<stop stop-color="white"/>
<stop offset="1" stop-color="#00FFC2"/>
</radialGradient>
<radialGradient id="paint49_radial" cx="0" cy="0" r="1" gradientUnits="userSpaceOnUse" gradientTransform="translate(79.0872 55.155) rotate(40) scale(28.9091 58.9522)">
<stop stop-color="#BAFFEF"/>
<stop offset="1" stop-color="#32FFCE"/>
</radialGradient>
<radialGradient id="paint50_radial" cx="0" cy="0" r="1" gradientUnits="userSpaceOnUse" gradientTransform="translate(60.9998 48.8506) rotate(43.417) scale(72.9655 39.9194)">
<stop stop-color="white"/>
<stop offset="1" stop-color="#00FFC2"/>
</radialGradient>
<radialGradient id="paint51_radial" cx="0" cy="0" r="1" gradientUnits="userSpaceOnUse" gradientTransform="translate(73.0452 62.75) scale(28.9091 58.9522)">
<stop stop-color="#BAFFEF"/>
<stop offset="1" stop-color="#32FFCE"/>
</radialGradient>
<radialGradient id="paint52_radial" cx="0" cy="0" r="1" gradientUnits="userSpaceOnUse" gradientTransform="translate(65.075 44.5702) rotate(53.417) scale(72.9655 39.9194)">
<stop stop-color="white"/>
<stop offset="1" stop-color="#00FFC2"/>
</radialGradient>
<radialGradient id="paint53_radial" cx="0" cy="0" r="1" gradientUnits="userSpaceOnUse" gradientTransform="translate(74.5239 60.3501) rotate(10) scale(28.9091 58.9522)">
<stop stop-color="#BAFFEF"/>
<stop offset="1" stop-color="#32FFCE"/>
</radialGradient>
<radialGradient id="paint54_radial" cx="0" cy="0" r="1" gradientUnits="userSpaceOnUse" gradientTransform="translate(69.8316 41.0625) rotate(63.417) scale(72.9655 39.9194)">
<stop stop-color="white"/>
<stop offset="1" stop-color="#00FFC2"/>
</radialGradient>
<radialGradient id="paint55_radial" cx="0" cy="0" r="1" gradientUnits="userSpaceOnUse" gradientTransform="translate(76.3968 58.2435) rotate(20) scale(28.9091 58.9522)">
<stop stop-color="#BAFFEF"/>
<stop offset="1" stop-color="#32FFCE"/>
</radialGradient>
<radialGradient id="paint56_radial" cx="0" cy="0" r="1" gradientUnits="userSpaceOnUse" gradientTransform="translate(75.1249 38.4341) rotate(73.417) scale(72.9655 39.9194)">
<stop stop-color="white"/>
<stop offset="1" stop-color="#00FFC2"/>
</radialGradient>
<radialGradient id="paint57_radial" cx="0" cy="0" r="1" gradientUnits="userSpaceOnUse" gradientTransform="translate(78.6069 56.494) rotate(30) scale(28.9091 58.9522)">
<stop stop-color="#BAFFEF"/>
<stop offset="1" stop-color="#32FFCE"/>
</radialGradient>
<radialGradient id="paint58_radial" cx="0" cy="0" r="1" gradientUnits="userSpaceOnUse" gradientTransform="translate(80.7943 36.7647) rotate(83.417) scale(72.9655 39.9194)">
<stop stop-color="white"/>
<stop offset="1" stop-color="#00FFC2"/>
</radialGradient>
<radialGradient id="paint59_radial" cx="0" cy="0" r="1" gradientUnits="userSpaceOnUse" gradientTransform="translate(81.0872 55.155) rotate(40) scale(28.9091 58.9522)">
<stop stop-color="#BAFFEF"/>
<stop offset="1" stop-color="#32FFCE"/>
</radialGradient>
<radialGradient id="paint60_radial" cx="0" cy="0" r="1" gradientUnits="userSpaceOnUse" gradientTransform="translate(49.5684 57.7783) rotate(28.4573) scale(65.6202 35.9035)">
<stop stop-color="white"/>
<stop offset="1" stop-color="#00FFC2"/>
</radialGradient>
<radialGradient id="paint61_radial" cx="0" cy="0" r="1" gradientUnits="userSpaceOnUse" gradientTransform="translate(63.2629 67.0596) rotate(-15) scale(25.9816 53.057)">
<stop stop-color="#BAFFEF"/>
<stop offset="1" stop-color="#32FFCE"/>
</radialGradient>
<radialGradient id="paint62_radial" cx="0" cy="0" r="1" gradientUnits="userSpaceOnUse" gradientTransform="translate(52.1152 53.1137) rotate(38.4573) scale(65.6202 35.9035)">
<stop stop-color="white"/>
<stop offset="1" stop-color="#00FFC2"/>
</radialGradient>
<radialGradient id="paint63_radial" cx="0" cy="0" r="1" gradientUnits="userSpaceOnUse" gradientTransform="translate(63.9898 64.632) rotate(-5) scale(25.9816 53.057)">
<stop stop-color="#BAFFEF"/>
<stop offset="1" stop-color="#32FFCE"/>
</radialGradient>
<radialGradient id="paint64_radial" cx="0" cy="0" r="1" gradientUnits="userSpaceOnUse" gradientTransform="translate(55.4329 48.9622) rotate(48.4573) scale(65.6202 35.9035)">
<stop stop-color="white"/>
<stop offset="1" stop-color="#00FFC2"/>
</radialGradient>
<radialGradient id="paint65_radial" cx="0" cy="0" r="1" gradientUnits="userSpaceOnUse" gradientTransform="translate(65.1272 62.3676) rotate(5) scale(25.9816 53.057)">
<stop stop-color="#BAFFEF"/>
<stop offset="1" stop-color="#32FFCE"/>
</radialGradient>
<radialGradient id="paint66_radial" cx="0" cy="0" r="1" gradientUnits="userSpaceOnUse" gradientTransform="translate(59.4213 45.45) rotate(58.4573) scale(65.6202 35.9035)">
<stop stop-color="white"/>
<stop offset="1" stop-color="#00FFC2"/>
</radialGradient>
<radialGradient id="paint67_radial" cx="0" cy="0" r="1" gradientUnits="userSpaceOnUse" gradientTransform="translate(66.6404 60.3351) rotate(15) scale(25.9816 53.057)">
<stop stop-color="#BAFFEF"/>
<stop offset="1" stop-color="#32FFCE"/>
</radialGradient>
<radialGradient id="paint68_radial" cx="0" cy="0" r="1" gradientUnits="userSpaceOnUse" gradientTransform="translate(63.9591 42.6836) rotate(68.4573) scale(65.6202 35.9035)">
<stop stop-color="white"/>
<stop offset="1" stop-color="#00FFC2"/>
</radialGradient>
<radialGradient id="paint69_radial" cx="0" cy="0" r="1" gradientUnits="userSpaceOnUse" gradientTransform="translate(68.4836 58.5962) rotate(25) scale(25.9816 53.057)">
<stop stop-color="#BAFFEF"/>
<stop offset="1" stop-color="#32FFCE"/>
</radialGradient>
<radialGradient id="paint70_radial" cx="0" cy="0" r="1" gradientUnits="userSpaceOnUse" gradientTransform="translate(44.0744 55.4187) rotate(28.3917) scale(78.4745 42.9312)">
<stop stop-color="white"/>
<stop offset="1" stop-color="#00FFC2"/>
</radialGradient>
<radialGradient id="paint71_radial" cx="0" cy="0" r="1" gradientUnits="userSpaceOnUse" gradientTransform="translate(60.4604 66.4971) rotate(-15) scale(31.1047 63.3737)">
<stop stop-color="#BAFFEF"/>
<stop offset="1" stop-color="#32FFCE"/>
</radialGradient>
<radialGradient id="paint72_radial" cx="0" cy="0" r="1" gradientUnits="userSpaceOnUse" gradientTransform="translate(47.1141 49.8359) rotate(38.3917) scale(78.4745 42.9312)">
<stop stop-color="white"/>
<stop offset="1" stop-color="#00FFC2"/>
</radialGradient>
<radialGradient id="paint73_radial" cx="0" cy="0" r="1" gradientUnits="userSpaceOnUse" gradientTransform="translate(61.3274 63.5914) rotate(-5) scale(31.1047 63.3737)">
<stop stop-color="#BAFFEF"/>
<stop offset="1" stop-color="#32FFCE"/>
</radialGradient>
<radialGradient id="paint74_radial" cx="0" cy="0" r="1" gradientUnits="userSpaceOnUse" gradientTransform="translate(51.0773 44.8659) rotate(48.3917) scale(78.4745 42.9312)">
<stop stop-color="white"/>
<stop offset="1" stop-color="#00FFC2"/>
</radialGradient>
<radialGradient id="paint75_radial" cx="0" cy="0" r="1" gradientUnits="userSpaceOnUse" gradientTransform="translate(62.6858 60.8804) rotate(5) scale(31.1047 63.3737)">
<stop stop-color="#BAFFEF"/>
<stop offset="1" stop-color="#32FFCE"/>
</radialGradient>
<radialGradient id="paint76_radial" cx="0" cy="0" r="1" gradientUnits="userSpaceOnUse" gradientTransform="translate(55.843 40.6595) rotate(58.3917) scale(78.4745 42.9312)">
<stop stop-color="white"/>
<stop offset="1" stop-color="#00FFC2"/>
</radialGradient>
<radialGradient id="paint77_radial" cx="0" cy="0" r="1" gradientUnits="userSpaceOnUse" gradientTransform="translate(64.4946 58.4466) rotate(15) scale(31.1047 63.3737)">
<stop stop-color="#BAFFEF"/>
<stop offset="1" stop-color="#32FFCE"/>
</radialGradient>
<radialGradient id="paint78_radial" cx="0" cy="0" r="1" gradientUnits="userSpaceOnUse" gradientTransform="translate(61.2671 37.3446) rotate(68.3918) scale(78.4745 42.9312)">
<stop stop-color="white"/>
<stop offset="1" stop-color="#00FFC2"/>
</radialGradient>
<radialGradient id="paint79_radial" cx="0" cy="0" r="1" gradientUnits="userSpaceOnUse" gradientTransform="translate(66.6985 56.3638) rotate(25) scale(31.1047 63.3737)">
<stop stop-color="#BAFFEF"/>
<stop offset="1" stop-color="#32FFCE"/>
</radialGradient>
</defs>
</svg>
